<mxfile host="Electron" agent="Mozilla/5.0 (Macintosh; Intel Mac OS X 10_15_7) AppleWebKit/537.36 (KHTML, like Gecko) draw.io/25.0.2 Chrome/128.0.6613.186 Electron/32.2.5 Safari/537.36" version="25.0.2">
  <diagram name="Side-1" id="wL0aWajeNsjBoE6SFL7c">
    <mxGraphModel dx="2020" dy="909" grid="1" gridSize="10" guides="1" tooltips="1" connect="1" arrows="1" fold="1" page="1" pageScale="1" pageWidth="827" pageHeight="1169" math="0" shadow="0">
      <root>
        <mxCell id="0" />
        <mxCell id="1" parent="0" />
        <mxCell id="hg8G4Vc_KyuRG5MOXF3n-1" value="" style="ellipse;html=1;shape=startState;fillColor=#000000;strokeColor=#ff0000;" vertex="1" parent="1">
          <mxGeometry x="384" y="20" width="30" height="30" as="geometry" />
        </mxCell>
        <mxCell id="hg8G4Vc_KyuRG5MOXF3n-2" value="" style="edgeStyle=orthogonalEdgeStyle;html=1;verticalAlign=bottom;endArrow=open;endSize=8;strokeColor=#ff0000;rounded=0;" edge="1" source="hg8G4Vc_KyuRG5MOXF3n-1" parent="1">
          <mxGeometry relative="1" as="geometry">
            <mxPoint x="399" y="80" as="targetPoint" />
          </mxGeometry>
        </mxCell>
        <mxCell id="hg8G4Vc_KyuRG5MOXF3n-3" value="&lt;b&gt;Make local Ubuntu instance&lt;/b&gt;" style="rounded=1;whiteSpace=wrap;html=1;" vertex="1" parent="1">
          <mxGeometry x="15" y="160" width="120" height="60" as="geometry" />
        </mxCell>
        <mxCell id="hg8G4Vc_KyuRG5MOXF3n-6" style="edgeStyle=orthogonalEdgeStyle;rounded=0;orthogonalLoop=1;jettySize=auto;html=1;" edge="1" parent="1" source="hg8G4Vc_KyuRG5MOXF3n-5">
          <mxGeometry relative="1" as="geometry">
            <mxPoint x="75" y="340" as="targetPoint" />
          </mxGeometry>
        </mxCell>
        <mxCell id="hg8G4Vc_KyuRG5MOXF3n-8" style="edgeStyle=orthogonalEdgeStyle;rounded=0;orthogonalLoop=1;jettySize=auto;html=1;" edge="1" parent="1" source="hg8G4Vc_KyuRG5MOXF3n-7">
          <mxGeometry relative="1" as="geometry">
            <mxPoint x="75" y="430" as="targetPoint" />
          </mxGeometry>
        </mxCell>
        <mxCell id="hg8G4Vc_KyuRG5MOXF3n-16" value="&lt;font style=&quot;font-size: 16px;&quot;&gt;build_and_test&lt;/font&gt;" style="shape=umlFrame;whiteSpace=wrap;html=1;pointerEvents=0;recursiveResize=0;container=1;collapsible=0;width=130;height=30;" vertex="1" parent="1">
          <mxGeometry x="-40" y="125" width="230" height="555" as="geometry" />
        </mxCell>
        <mxCell id="hg8G4Vc_KyuRG5MOXF3n-29" style="edgeStyle=orthogonalEdgeStyle;rounded=0;orthogonalLoop=1;jettySize=auto;html=1;" edge="1" parent="hg8G4Vc_KyuRG5MOXF3n-16">
          <mxGeometry relative="1" as="geometry">
            <mxPoint x="150" y="35" as="targetPoint" />
            <mxPoint x="350" y="-28.450000000000003" as="sourcePoint" />
            <Array as="points">
              <mxPoint x="150" y="-28" />
              <mxPoint x="150" y="35" />
            </Array>
          </mxGeometry>
        </mxCell>
        <mxCell id="hg8G4Vc_KyuRG5MOXF3n-30" value="Open pull request" style="edgeLabel;html=1;align=center;verticalAlign=middle;resizable=0;points=[];" vertex="1" connectable="0" parent="hg8G4Vc_KyuRG5MOXF3n-29">
          <mxGeometry x="-0.0812" y="2" relative="1" as="geometry">
            <mxPoint as="offset" />
          </mxGeometry>
        </mxCell>
        <mxCell id="hg8G4Vc_KyuRG5MOXF3n-4" style="edgeStyle=orthogonalEdgeStyle;rounded=0;orthogonalLoop=1;jettySize=auto;html=1;exitX=0.5;exitY=1;exitDx=0;exitDy=0;" edge="1" parent="hg8G4Vc_KyuRG5MOXF3n-16">
          <mxGeometry relative="1" as="geometry">
            <mxPoint x="112.5" y="125" as="targetPoint" />
            <mxPoint x="117.5" y="95" as="sourcePoint" />
          </mxGeometry>
        </mxCell>
        <mxCell id="hg8G4Vc_KyuRG5MOXF3n-5" value="&lt;b&gt;Get and stores environment variable, on the local Ubuntu instance&lt;/b&gt;" style="rounded=1;whiteSpace=wrap;html=1;" vertex="1" parent="hg8G4Vc_KyuRG5MOXF3n-16">
          <mxGeometry x="32.5" y="125" width="165" height="55" as="geometry" />
        </mxCell>
        <mxCell id="hg8G4Vc_KyuRG5MOXF3n-7" value="&lt;b&gt;Checkout that fetches the repository code&lt;/b&gt;" style="rounded=1;whiteSpace=wrap;html=1;" vertex="1" parent="hg8G4Vc_KyuRG5MOXF3n-16">
          <mxGeometry x="55" y="215" width="120" height="60" as="geometry" />
        </mxCell>
        <mxCell id="hg8G4Vc_KyuRG5MOXF3n-38" style="edgeStyle=orthogonalEdgeStyle;rounded=0;orthogonalLoop=1;jettySize=auto;html=1;entryX=0.5;entryY=0;entryDx=0;entryDy=0;" edge="1" parent="hg8G4Vc_KyuRG5MOXF3n-16" source="hg8G4Vc_KyuRG5MOXF3n-9" target="hg8G4Vc_KyuRG5MOXF3n-11">
          <mxGeometry relative="1" as="geometry" />
        </mxCell>
        <mxCell id="hg8G4Vc_KyuRG5MOXF3n-9" value="&lt;b&gt;Setup .NET framework version 8&lt;/b&gt;" style="rounded=1;whiteSpace=wrap;html=1;" vertex="1" parent="hg8G4Vc_KyuRG5MOXF3n-16">
          <mxGeometry x="55" y="305" width="120" height="45" as="geometry" />
        </mxCell>
        <mxCell id="hg8G4Vc_KyuRG5MOXF3n-40" style="edgeStyle=orthogonalEdgeStyle;rounded=0;orthogonalLoop=1;jettySize=auto;html=1;entryX=0.5;entryY=0;entryDx=0;entryDy=0;" edge="1" parent="hg8G4Vc_KyuRG5MOXF3n-16" source="hg8G4Vc_KyuRG5MOXF3n-11" target="hg8G4Vc_KyuRG5MOXF3n-13">
          <mxGeometry relative="1" as="geometry" />
        </mxCell>
        <mxCell id="hg8G4Vc_KyuRG5MOXF3n-11" value="&lt;b&gt;Dotnet restore&lt;/b&gt;" style="rounded=1;whiteSpace=wrap;html=1;" vertex="1" parent="hg8G4Vc_KyuRG5MOXF3n-16">
          <mxGeometry x="55" y="385" width="120" height="25" as="geometry" />
        </mxCell>
        <mxCell id="hg8G4Vc_KyuRG5MOXF3n-41" style="edgeStyle=orthogonalEdgeStyle;rounded=0;orthogonalLoop=1;jettySize=auto;html=1;entryX=0.5;entryY=0;entryDx=0;entryDy=0;" edge="1" parent="hg8G4Vc_KyuRG5MOXF3n-16" source="hg8G4Vc_KyuRG5MOXF3n-13" target="hg8G4Vc_KyuRG5MOXF3n-15">
          <mxGeometry relative="1" as="geometry" />
        </mxCell>
        <mxCell id="hg8G4Vc_KyuRG5MOXF3n-13" value="&lt;b&gt;Dotnet build&lt;/b&gt;" style="rounded=1;whiteSpace=wrap;html=1;" vertex="1" parent="hg8G4Vc_KyuRG5MOXF3n-16">
          <mxGeometry x="55" y="435" width="120" height="25" as="geometry" />
        </mxCell>
        <mxCell id="hg8G4Vc_KyuRG5MOXF3n-15" value="&lt;b&gt;Dotnet test % playwright&lt;/b&gt;" style="rounded=1;whiteSpace=wrap;html=1;" vertex="1" parent="hg8G4Vc_KyuRG5MOXF3n-16">
          <mxGeometry x="55" y="495" width="120" height="45" as="geometry" />
        </mxCell>
        <mxCell id="hg8G4Vc_KyuRG5MOXF3n-26" style="edgeStyle=orthogonalEdgeStyle;rounded=0;orthogonalLoop=1;jettySize=auto;html=1;entryX=0.421;entryY=0;entryDx=0;entryDy=0;entryPerimeter=0;" edge="1" parent="1" source="hg8G4Vc_KyuRG5MOXF3n-25" target="hg8G4Vc_KyuRG5MOXF3n-33">
          <mxGeometry relative="1" as="geometry">
            <mxPoint x="680" y="120" as="targetPoint" />
            <Array as="points">
              <mxPoint x="681" y="100" />
            </Array>
          </mxGeometry>
        </mxCell>
        <mxCell id="hg8G4Vc_KyuRG5MOXF3n-28" value="Push to main" style="edgeLabel;html=1;align=center;verticalAlign=middle;resizable=0;points=[];" vertex="1" connectable="0" parent="hg8G4Vc_KyuRG5MOXF3n-26">
          <mxGeometry x="-0.4328" y="-1" relative="1" as="geometry">
            <mxPoint x="1" y="9" as="offset" />
          </mxGeometry>
        </mxCell>
        <mxCell id="hg8G4Vc_KyuRG5MOXF3n-31" style="edgeStyle=orthogonalEdgeStyle;rounded=0;orthogonalLoop=1;jettySize=auto;html=1;entryX=0.704;entryY=0.003;entryDx=0;entryDy=0;entryPerimeter=0;" edge="1" parent="1" source="hg8G4Vc_KyuRG5MOXF3n-25" target="hg8G4Vc_KyuRG5MOXF3n-3">
          <mxGeometry relative="1" as="geometry">
            <mxPoint x="270" y="20" as="targetPoint" />
            <Array as="points">
              <mxPoint x="571" y="100" />
              <mxPoint x="571" y="10" />
              <mxPoint x="99" y="10" />
            </Array>
          </mxGeometry>
        </mxCell>
        <mxCell id="hg8G4Vc_KyuRG5MOXF3n-25" value="Github action trigger" style="rhombus;whiteSpace=wrap;html=1;" vertex="1" parent="1">
          <mxGeometry x="310" y="80" width="180" height="40" as="geometry" />
        </mxCell>
        <mxCell id="hg8G4Vc_KyuRG5MOXF3n-32" value="bdsa2024group19chirprazordeploy" style="shape=umlFrame;whiteSpace=wrap;html=1;pointerEvents=0;recursiveResize=0;container=1;collapsible=0;width=210;height=30;" vertex="1" parent="1">
          <mxGeometry x="580" y="125" width="220" height="765" as="geometry" />
        </mxCell>
        <mxCell id="hg8G4Vc_KyuRG5MOXF3n-42" style="edgeStyle=orthogonalEdgeStyle;rounded=0;orthogonalLoop=1;jettySize=auto;html=1;entryX=0.5;entryY=0;entryDx=0;entryDy=0;" edge="1" parent="hg8G4Vc_KyuRG5MOXF3n-32" source="hg8G4Vc_KyuRG5MOXF3n-33">
          <mxGeometry relative="1" as="geometry">
            <mxPoint x="110" y="105" as="targetPoint" />
          </mxGeometry>
        </mxCell>
        <mxCell id="hg8G4Vc_KyuRG5MOXF3n-33" value="&lt;b&gt;Setup environment variables&lt;/b&gt;" style="rounded=1;whiteSpace=wrap;html=1;" vertex="1" parent="hg8G4Vc_KyuRG5MOXF3n-32">
          <mxGeometry x="50" y="45" width="120" height="35" as="geometry" />
        </mxCell>
        <mxCell id="hg8G4Vc_KyuRG5MOXF3n-46" style="edgeStyle=orthogonalEdgeStyle;rounded=0;orthogonalLoop=1;jettySize=auto;html=1;entryX=0.5;entryY=0;entryDx=0;entryDy=0;" edge="1" parent="hg8G4Vc_KyuRG5MOXF3n-32" source="hg8G4Vc_KyuRG5MOXF3n-43" target="hg8G4Vc_KyuRG5MOXF3n-44">
          <mxGeometry relative="1" as="geometry" />
        </mxCell>
        <mxCell id="hg8G4Vc_KyuRG5MOXF3n-43" value="&lt;b&gt;Make local Ubuntu instance&lt;/b&gt;" style="rounded=1;whiteSpace=wrap;html=1;" vertex="1" parent="hg8G4Vc_KyuRG5MOXF3n-32">
          <mxGeometry x="50" y="105" width="120" height="60" as="geometry" />
        </mxCell>
        <mxCell id="hg8G4Vc_KyuRG5MOXF3n-55" style="edgeStyle=orthogonalEdgeStyle;rounded=0;orthogonalLoop=1;jettySize=auto;html=1;entryX=0.5;entryY=0;entryDx=0;entryDy=0;" edge="1" parent="hg8G4Vc_KyuRG5MOXF3n-32" source="hg8G4Vc_KyuRG5MOXF3n-44" target="hg8G4Vc_KyuRG5MOXF3n-49">
          <mxGeometry relative="1" as="geometry" />
        </mxCell>
        <mxCell id="hg8G4Vc_KyuRG5MOXF3n-44" value="&lt;b&gt;Checkout that fetches the repository code&lt;/b&gt;" style="rounded=1;whiteSpace=wrap;html=1;" vertex="1" parent="hg8G4Vc_KyuRG5MOXF3n-32">
          <mxGeometry x="50" y="195" width="120" height="60" as="geometry" />
        </mxCell>
        <mxCell id="hg8G4Vc_KyuRG5MOXF3n-48" style="edgeStyle=orthogonalEdgeStyle;rounded=0;orthogonalLoop=1;jettySize=auto;html=1;entryX=0.5;entryY=0;entryDx=0;entryDy=0;" edge="1" parent="hg8G4Vc_KyuRG5MOXF3n-32" source="hg8G4Vc_KyuRG5MOXF3n-49" target="hg8G4Vc_KyuRG5MOXF3n-51">
          <mxGeometry relative="1" as="geometry" />
        </mxCell>
        <mxCell id="hg8G4Vc_KyuRG5MOXF3n-49" value="&lt;b&gt;Setup .NET framework version 8&lt;/b&gt;" style="rounded=1;whiteSpace=wrap;html=1;" vertex="1" parent="hg8G4Vc_KyuRG5MOXF3n-32">
          <mxGeometry x="50" y="285" width="120" height="45" as="geometry" />
        </mxCell>
        <mxCell id="hg8G4Vc_KyuRG5MOXF3n-50" style="edgeStyle=orthogonalEdgeStyle;rounded=0;orthogonalLoop=1;jettySize=auto;html=1;entryX=0.5;entryY=0;entryDx=0;entryDy=0;" edge="1" parent="hg8G4Vc_KyuRG5MOXF3n-32" source="hg8G4Vc_KyuRG5MOXF3n-51" target="hg8G4Vc_KyuRG5MOXF3n-53">
          <mxGeometry relative="1" as="geometry" />
        </mxCell>
        <mxCell id="hg8G4Vc_KyuRG5MOXF3n-51" value="&lt;b&gt;Dotnet restore&lt;/b&gt;" style="rounded=1;whiteSpace=wrap;html=1;" vertex="1" parent="hg8G4Vc_KyuRG5MOXF3n-32">
          <mxGeometry x="50" y="365" width="120" height="25" as="geometry" />
        </mxCell>
        <mxCell id="hg8G4Vc_KyuRG5MOXF3n-52" style="edgeStyle=orthogonalEdgeStyle;rounded=0;orthogonalLoop=1;jettySize=auto;html=1;entryX=0.5;entryY=0;entryDx=0;entryDy=0;" edge="1" parent="hg8G4Vc_KyuRG5MOXF3n-32" source="hg8G4Vc_KyuRG5MOXF3n-53" target="hg8G4Vc_KyuRG5MOXF3n-54">
          <mxGeometry relative="1" as="geometry" />
        </mxCell>
        <mxCell id="hg8G4Vc_KyuRG5MOXF3n-53" value="&lt;b&gt;Dotnet build&lt;/b&gt;" style="rounded=1;whiteSpace=wrap;html=1;" vertex="1" parent="hg8G4Vc_KyuRG5MOXF3n-32">
          <mxGeometry x="50" y="415" width="120" height="25" as="geometry" />
        </mxCell>
        <mxCell id="hg8G4Vc_KyuRG5MOXF3n-57" style="edgeStyle=orthogonalEdgeStyle;rounded=0;orthogonalLoop=1;jettySize=auto;html=1;entryX=0.5;entryY=0;entryDx=0;entryDy=0;" edge="1" parent="hg8G4Vc_KyuRG5MOXF3n-32" source="hg8G4Vc_KyuRG5MOXF3n-54" target="hg8G4Vc_KyuRG5MOXF3n-56">
          <mxGeometry relative="1" as="geometry" />
        </mxCell>
        <mxCell id="hg8G4Vc_KyuRG5MOXF3n-54" value="&lt;b&gt;Dotnet test % playwright&lt;/b&gt;" style="rounded=1;whiteSpace=wrap;html=1;" vertex="1" parent="hg8G4Vc_KyuRG5MOXF3n-32">
          <mxGeometry x="50" y="475" width="120" height="45" as="geometry" />
        </mxCell>
        <mxCell id="hg8G4Vc_KyuRG5MOXF3n-59" style="edgeStyle=orthogonalEdgeStyle;rounded=0;orthogonalLoop=1;jettySize=auto;html=1;entryX=0.5;entryY=0;entryDx=0;entryDy=0;" edge="1" parent="hg8G4Vc_KyuRG5MOXF3n-32" source="hg8G4Vc_KyuRG5MOXF3n-56" target="hg8G4Vc_KyuRG5MOXF3n-58">
          <mxGeometry relative="1" as="geometry" />
        </mxCell>
        <mxCell id="hg8G4Vc_KyuRG5MOXF3n-56" value="&lt;b&gt;Upload and download&amp;nbsp;&lt;/b&gt;&lt;b&gt;artifact&lt;/b&gt;" style="rounded=1;whiteSpace=wrap;html=1;" vertex="1" parent="hg8G4Vc_KyuRG5MOXF3n-32">
          <mxGeometry x="50" y="555" width="120" height="40" as="geometry" />
        </mxCell>
        <mxCell id="hg8G4Vc_KyuRG5MOXF3n-61" style="edgeStyle=orthogonalEdgeStyle;rounded=0;orthogonalLoop=1;jettySize=auto;html=1;entryX=0.5;entryY=0;entryDx=0;entryDy=0;" edge="1" parent="hg8G4Vc_KyuRG5MOXF3n-32" source="hg8G4Vc_KyuRG5MOXF3n-58" target="hg8G4Vc_KyuRG5MOXF3n-60">
          <mxGeometry relative="1" as="geometry" />
        </mxCell>
        <mxCell id="hg8G4Vc_KyuRG5MOXF3n-58" value="&lt;b&gt;Deploy to Azure&lt;/b&gt;" style="rounded=1;whiteSpace=wrap;html=1;" vertex="1" parent="hg8G4Vc_KyuRG5MOXF3n-32">
          <mxGeometry x="50" y="625" width="120" height="35" as="geometry" />
        </mxCell>
        <mxCell id="hg8G4Vc_KyuRG5MOXF3n-60" value="&lt;b&gt;Forwards environment variables to Azure&lt;/b&gt;" style="rounded=1;whiteSpace=wrap;html=1;" vertex="1" parent="hg8G4Vc_KyuRG5MOXF3n-32">
          <mxGeometry x="50" y="685" width="120" height="60" as="geometry" />
        </mxCell>
      </root>
    </mxGraphModel>
  </diagram>
</mxfile>
